<?xml version="1.0" encoding="UTF-8"?>
<svg xmlns="http://www.w3.org/2000/svg" width="1600" height="800" viewBox="0 0 1600 800" role="img" aria-labelledby="title desc">
  <title id="title">Abstract bedroom floor plan, moving boxes, and change management illustration</title>
  <desc id="desc">Editorial cover image for moving-back-home.</desc>
  <defs>
    <pattern id="grid" width="44" height="44" patternUnits="userSpaceOnUse">
      <path d="M44 0H0V44" fill="none" stroke="#141514" stroke-opacity=".055" stroke-width="1.5"/>
    </pattern>
    <filter id="paper" x="-10%" y="-10%" width="120%" height="120%">
      <feTurbulence type="fractalNoise" baseFrequency=".9" numOctaves="2" seed="7" result="noise"/>
      <feColorMatrix in="noise" type="saturate" values="0"/>
      <feComponentTransfer>
        <feFuncA type="table" tableValues="0 .07"/>
      </feComponentTransfer>
      <feBlend in="SourceGraphic" mode="multiply"/>
    </filter>
  </defs>
  <rect width="1600" height="800" fill="#f7f7f4"/>
  <rect width="1600" height="800" fill="url(#grid)"/>
  <g filter="url(#paper)">
    <rect x="118" y="96" width="222" height="518" rx="8" fill="#00a6a6" opacity=".88"/>
    <rect x="1232" y="130" width="248" height="438" rx="8" fill="#fffaf0" stroke="#d8d8d1" stroke-width="3"/>
    <rect x="392" y="168" width="706" height="480" rx="10" fill="#141514"/>
    <rect x="1108" y="430" width="278" height="218" rx="8" fill="#141514"/>
    <path d="M132 586H420M1098 408H1458M250 210H574M980 650h360" fill="none" stroke="#141514" stroke-opacity=".35" stroke-width="4"/>
    <circle cx="290" cy="214" r="9" fill="#00a6a6"/>
    <circle cx="576" cy="210" r="9" fill="#141514"/>
    <circle cx="1098" cy="408" r="9" fill="#00a6a6"/>
    <circle cx="1458" cy="408" r="9" fill="#141514"/>
    <g stroke="#141514" stroke-opacity=".32" stroke-width="3" fill="none">
      <path d="M130 172c62-30 118-50 168-61"/>
      <path d="M1324 186h102v112h-64v118h-80"/>
      <path d="M228 654v-98h118v-82"/>
      <path d="M1164 176v98h-66v82"/>
    </g>
    <g transform="translate(500 230)">
        <rect x="70" y="42" width="420" height="284" rx="14" fill="none" stroke="rgba(255,255,255,.78)" stroke-width="5"/>
        <path d="M70 154h420M222 42v284M348 154v172" stroke="rgba(255,255,255,.78)" stroke-width="5" stroke-linecap="round" stroke-linejoin="round" fill="none"/>
        <rect x="552" y="96" width="98" height="82" rx="8" fill="#00a6a6"/>
        <rect x="588" y="196" width="98" height="82" rx="8" fill="#305cde"/>
        <path d="M110 96h72M262 96h46M388 210h54M108 250h76" stroke="rgba(255,255,255,.42)" stroke-width="5"/>
        <path d="M596 66l42-36 42 36" stroke="rgba(255,255,255,.78)" stroke-width="5" stroke-linecap="round" stroke-linejoin="round" fill="none"/>
      </g>
    <g opacity=".9">
      <circle cx="130" cy="210" r="5" fill="#141514"/>
      <circle cx="153" cy="210" r="5" fill="#141514"/>
      <circle cx="176" cy="210" r="5" fill="#141514"/>
      <circle cx="1350" cy="620" r="7" fill="#305cde"/>
      <circle cx="1400" cy="620" r="7" fill="#00a6a6"/>
      <circle cx="1450" cy="620" r="7" fill="#141514"/>
    </g>
  </g>
</svg>
